<?xml version="1.0" encoding="utf-8"?>
<!-- Generator: Adobe Illustrator 19.0.0, SVG Export Plug-In . SVG Version: 6.00 Build 0)  -->
<svg version="1.1" id="Layer_1" xmlnssvg="http://www.w3.org/2000/svg"
	 xmlns="http://www.w3.org/2000/svg" xmlns:xlink="http://www.w3.org/1999/xlink" x="0px" y="0px" viewBox="300 -184 800 568"
	 enable-background="new 300 -184 800 568" xml:space="preserve">
<path id="path7" fill="#FFFFFF" d="M300-184"/>
<circle id="circle9" fill="none" cx="550.6" cy="184.4" r="29.5"/>
<path id="path15" fill="#FFFFFF" d="M300-184"/>
<path fill="#142641" d="M326.5-184h747c14.6,0,26.5,11.9,26.5,26.5v515c0,14.6-11.9,26.5-26.5,26.5h-747
	c-14.6,0-26.5-11.9-26.5-26.5v-515C300-172.1,311.9-184,326.5-184z M604.4-54.3l-248.6,249c0,0-31.9,30.2-3,60.3
	c28.9,30.2,56.1,6.4,60.8,2.1S580.2,94.5,580.2,94.5s14.5-14.9,14.5-0.9c0,14,0,127.1,0,127.1s-5.5,48.9,42.1,48.9
	s42.5-38.7,42.9-47.6c0.4-8.9-0.4-246.1-0.4-246.1s1.7-32.7-23.8-41.6C629.9-74.7,611.6-61.5,604.4-54.3z M828.8-68.7h-84.6
	c0,0-44.2-5.1-44.2,41.2s32.3,43.3,39.9,43.3c7.6,0,34.4,0,34.4,0s10.2-0.4,10.2,11.5c0,11.9,0,204.8,0,204.8s-2.1,37.4,42.1,37
	c44.2-0.4,42.5-35.7,42.5-35.7l0.4-205.3c0,0-2.1-12.7,12.8-12.7c16.1,0,30.6,0,30.6,0s40.8-0.4,40.8-42.1s-42.5-42.1-42.5-42.1
	L828.8-68.7L828.8-68.7z M974.1-26.6v254.6c0,0-3.4,41.6,45,41.6c44.2,0,40.4-39.9,40.4-39.9l0.4-259.2c0,0,0.4-39.1-42.9-39.1
	C973.3-68.7,974.1-26.6,974.1-26.6z M1017.3-54.7c15.6,0,28.3,12.7,28.3,28.3s-12.7,28.3-28.3,28.3S989-10.8,989-26.4
	S1001.6-54.7,1017.3-54.7z M550.6,154.9c-16.3,0-29.5,13.2-29.5,29.5s13.2,29.5,29.5,29.5s29.5-13.2,29.5-29.5
	S566.9,154.9,550.6,154.9z"/>
</svg>
