<?xml version="1.0" encoding="UTF-8" standalone="no"?>
<!-- Created with Inkscape (http://www.inkscape.org/) -->
<svg
   xmlns:svg="http://www.w3.org/2000/svg"
   xmlns="http://www.w3.org/2000/svg"
   version="1.0"
   width="800"
   height="567.974"
   viewBox="0 0 800 567.974"
   id="Layer_1"
   xml:space="preserve"><defs
   id="defs20" />
<rect
   width="800"
   height="567.974"
   x="0"
   y="0"
   style="fill:#fe0000"
   id="rect3" />
<path
   d="M 304.377,129.715 L 55.757,378.76 C 55.757,378.76 23.882,408.934 52.782,439.109 C 81.681,469.283 108.881,445.484 113.556,441.234 C 118.231,436.984 280.153,278.462 280.153,278.462 C 280.153,278.462 294.603,263.587 294.603,277.612 C 294.603,291.636 294.603,404.684 294.603,404.684 C 294.603,404.684 289.078,453.558 336.677,453.558 C 384.276,453.558 379.176,414.884 379.601,405.959 C 380.026,397.034 379.176,159.889 379.176,159.889 C 379.176,159.889 380.876,127.164 355.377,118.24 C 329.878,109.316 311.602,122.49 304.377,129.715 z "
   style="fill:white"
   id="path5" />
<path
   style="fill:white;stroke:black;stroke-width:3.39989996"
   id="path7" />
<circle
   cx="250.61501"
   cy="368.34698"
   r="29.537001"
   style="fill:white"
   id="circle9" />
<path
   d="M 528.772,115.265 L 444.199,115.265 C 444.199,115.265 400,110.165 400,156.489 C 400,202.813 432.3,199.838 439.949,199.838 C 447.598,199.838 474.373,199.838 474.373,199.838 C 474.373,199.838 484.573,199.413 484.573,211.313 C 484.573,223.213 484.573,416.159 484.573,416.159 C 484.573,416.159 482.448,453.558 526.647,453.134 C 570.846,452.71 569.146,417.435 569.146,417.435 L 569.571,212.164 C 569.571,212.164 567.446,199.414 582.321,199.414 C 598.47,199.414 612.921,199.414 612.921,199.414 C 612.921,199.414 653.72,198.989 653.72,157.34 C 653.72,115.691 611.221,115.266 611.221,115.266 L 528.772,115.266 L 528.772,115.265 z "
   style="fill:white"
   id="path11" />
<path
   d="M 674.119,157.339 L 674.119,411.908 C 674.119,411.908 670.72,453.557 719.169,453.557 C 763.368,453.557 759.543,413.608 759.543,413.608 L 759.968,154.363 C 759.968,154.363 760.395,115.264 717.044,115.264 C 673.27,115.265 674.119,157.339 674.119,157.339 z "
   style="fill:white"
   id="path13" />
<path
   style="fill:white;stroke:black;stroke-width:3.39989996"
   id="path15" />
<circle
   cx="717.25598"
   cy="157.552"
   r="28.261999"
   style="fill:#fe0000"
   id="circle17" />
</svg>