<?xml version="1.0" encoding="utf-8"?>
<!-- Generator: Adobe Illustrator 19.0.0, SVG Export Plug-In . SVG Version: 6.00 Build 0)  -->
<svg version="1.0" id="layer" xmlns="http://www.w3.org/2000/svg" xmlns:xlink="http://www.w3.org/1999/xlink" x="0px" y="0px"
	 viewBox="164 -195.6 470 500.2" style="enable-background:new 164 -195.6 470 500.2;" xml:space="preserve">
<style type="text/css">
	.st0{fill:#142641;}
</style>
<path class="st0" d="M192.6,302.9c4.4,0,7.5-0.2,9.3-0.6c1.8-0.4,3.6-1.1,5.5-2c1.9-0.9,3.3-1.8,4.2-2.8c1.4-1.3,2.5-3,3.3-5
	s1.2-4.2,1.2-6.6c0-3.4-0.8-6.2-2.6-8.5c-1.7-2.3-4-3.8-6.9-4.6c4.9-3.1,7.3-7.2,7.3-12c0-5-2.1-8.9-6.4-11.5c-3.3-2-8.4-3-15.4-3
	h-28v56.6H192.6L192.6,302.9z M188,259c2.6,0,4.3,0.1,5.2,0.4c1.1,0.3,2,0.9,2.6,1.7c0.7,0.8,1,1.8,1,2.9c0,1.5-0.6,2.6-1.7,3.6
	c-1.1,0.9-3.1,1.4-6,1.4h-7v-10H188z M189.6,279.2c3.7,0,6.1,0.5,7.3,1.4s1.8,2.2,1.8,3.9c0,1.7-0.6,3.1-1.8,4s-3.6,1.4-7.2,1.4H182
	v-10.7H189.6z M246.4,279.2c0,4.1,0.3,7.1,0.8,9c0.8,3.1,2,5.5,3.4,7.4c1.4,1.8,3.2,3.4,5.4,4.8c2.1,1.4,4.7,2.4,7.6,3.1
	c2.9,0.7,6.4,1.1,10.4,1.1c3.4,0,6.6-0.3,9.5-1s5.5-1.7,7.6-3c2.2-1.3,4-2.9,5.5-4.8c1.5-1.9,2.6-4,3.2-6.4c0.7-2.4,1-5.7,1-9.9v-33
	h-18.4v34.9c0,3.2-0.8,5.6-2.3,7c-1.5,1.5-3.6,2.2-6.4,2.2c-1.9,0-3.5-0.4-5-1.1c-1.5-0.7-2.5-1.7-3-2.9c-0.6-1.2-0.8-2.9-0.8-5.2
	v-34.9h-18.5V279.2L246.4,279.2z M350.2,302.9v-19.7h7.2c2.4,0,4.1,0.3,5.3,0.8c1.2,0.5,2.1,1.3,2.6,2.4c0.6,1.1,0.9,2.5,0.9,4.5
	l0.1,4.2c0.1,3.7,0.4,6.3,0.9,7.8H386v-1.8c-0.7-0.1-1.1-0.2-1.4-0.6c-0.2-0.2-0.3-1-0.4-2.3l-0.3-8.9c-0.1-4-0.8-6.8-2.1-8.5
	c-1.3-1.7-3.8-3.2-7.4-4.6c1.8-0.5,3.2-1.1,4.4-2c1.6-1.2,2.9-2.8,3.8-4.8c0.9-1.9,1.3-4.3,1.3-7.1c0-2.3-0.3-4.2-0.9-5.7
	c-0.6-1.5-1.5-3-2.7-4.4c-1.2-1.4-2.6-2.5-4.3-3.4c-1.7-0.9-3.9-1.5-6.5-1.9s-5.9-0.6-9.8-0.6H332v56.6H350.2L350.2,302.9z
	 M350.2,259.9h9.1c2.8,0,4.8,0.5,5.9,1.4c1.1,0.9,1.7,2.3,1.7,4s-0.6,3-1.8,4c-1.2,1-3.2,1.5-6,1.5h-8.9L350.2,259.9L350.2,259.9z
	 M411.9,261.1h16.7v41.7h18.5v-41.7h16.7v-14.9h-52L411.9,261.1L411.9,261.1z M546.4,289.1c2.2-4.5,3.3-9.6,3.3-15.3
	c0-5.8-1.2-10.9-3.7-15.4s-6.1-7.9-10.8-10.2c-4.7-2.3-9.8-3.5-15.4-3.5c-2.9,0-5.8,0.3-8.4,1c-2.7,0.7-5.2,1.7-7.5,2.9
	c-2.3,1.3-4.5,3.1-6.6,5.4s-3.8,5.2-5.1,8.7c-1.2,3.4-1.9,7.3-1.9,11.6c0,9,2.7,16.3,8.1,21.7c5.4,5.5,12.6,8.2,21.7,8.2
	c6.4,0,11.9-1.4,16.3-4.2C540.9,297.3,544.2,293.7,546.4,289.1z M512.2,286.9c-2.4-3-3.6-7.1-3.6-12.5c0-3.5,0.5-6.5,1.6-8.9
	s2.5-4.2,4.3-5.3c1.8-1.1,3.7-1.7,5.7-1.7c1.8,0,3.5,0.4,4.9,1.2c1.4,0.8,2.6,1.9,3.5,3.1c0.9,1.2,1.5,2.8,2.1,4.8
	c0.5,2,0.8,4.3,0.8,6.8c0,3.5-0.5,6.5-1.6,9c-1,2.5-2.4,4.2-4.2,5.3c-1.8,1.1-3.7,1.6-5.8,1.6C516.7,290.4,514.1,289.2,512.2,286.9z
	 M597.2,302.9v-29.6l19.1,29.6H634v-56.6h-17.8v30.3l-19.5-30.3h-17.3v56.6H597.2L597.2,302.9z M495-37.9c5.6-1.9,13.6-6.7,21-8.9
	c4.4-1.3,9.1,0.6,10.9,4.8c0,0,24.3,50.7,49.5,109.2c27.5,63.9,56.2,136.2,57,138.1c1.3,2.9,0.3,6.1-2.1,7.7
	c-3.3,2.2-6.6,0.7-8.5-1.7c0,0-33.6-57.2-45.6-76.8c-2.5-4.1-9.1-3.1-10.1,1.8c-2.1,10.3-3.9,26.2-8.5,36.9
	c-1.2,2.7-4.3,3.8-6.9,2.4c-6.2-3.3-11.5-8.2-15.4-14.1l-1.5-2.3c-2.6-4-4.5-8.3-5.7-12.9l-3.2-12.5c-0.4-1.7-1.1-3.2-1.7-4.8
	c-1.2-3-3.8-8.5-5.3-11.2c-2.1-3.8-7.5-3.8-9.1,0.2l-4.1,9.8c-2,4.7-6.1,8.3-11,9.6c-3,0.8-4.4,1-6.5,1.4c-1.8,0.3-3.2,1.6-3.8,3.3
	c-1.6,4.9-4.4,13.3-6.6,18.3c-1.4,3.2-5.1,4-8,2.1c-4.2-2.7-6.8-5.9-9.3-8.3c-6.5-5.9-11.2-13.5-13-22.1l-4.1-18.6
	c-0.9-4.2-2.6-8.2-4.6-12.1c-2.8-5.5-8-14.8-11.2-20.1c-3-4.9-9.3-4.1-10,1.6c-1.5,11.1-4.9,28.6-7.9,37.3c-2,5.9-6.8,4.4-9,1.9
	c-1-1.2-4.7-6.8-5.8-8.2c-3-3.8-11.5-5.6-14.3,8.4c-2.4,12.1-8,30.6-11.8,40.3c-1.6,4.3-6.9,5.1-9.3,1.2c-4.7-7.7-10.3-19.5-13.8-26
	c-2.4-4.6-7.2-7.6-12.4-7.8l-2.3-0.1c-5.7-0.2-10.7-3.7-12.9-8.9l-7.5-17.6c-0.9-2.1-2.4-3.8-4.4-4.8l-6.9-3.6
	c-5.4-2.9-10.2-6.8-14-11.6l-3.7-4.6c-5.1-7.8-14.2-6.8-16.8,3.8c-3.2,12.7-12.6,43.5-16.7,53.3c-1.4,3.5-5.4,4.6-8.3,2
	c-5.6-5-8-13.7-13-16.9c-3.5-2.3-7.4-1.2-9,1.8c-11.3,21.6-42.1,87.6-42.1,87.6c-2.2,3.8-7.1,4-9.1,2.1c-3.3-3-2.8-6.7-1.8-9.6
	c0,0,23.1-80.1,31.9-106.6c9.8-29.4,22.4-62,22.4-62c1.7-5.2,5.6-9.5,10.6-11.8l8.3-3.7c4.5-2,8-5.6,10-10.1
	c5.7-13.1,16.8-39.1,22.6-52.5c1.4-3.3,4.4-5.6,7.9-6.3c4.6-0.9,9.2-1.9,12.2-2.6c4-0.9,7.4-3.6,9.4-7.2l48.3-88.5
	c1.9-3.5,5.1-6,8.9-7.1l11.3-3.2c2.8-0.8,5.3-2.6,6.9-5.1l19.1-29.5c1.9-3,6.3-3.1,8.3-0.1c10.1,14.7,29,51.8,43.9,79.7
	c13.8,25.8,28.7,58.3,35.5,70.8C484.8-38.4,490.2-36.2,495-37.9z"/>
</svg>
