<svg width="162" height="80" viewBox="0 0 162 80" fill="none" xmlns="http://www.w3.org/2000/svg">
<path d="M38.6593 34.4795C33.5034 34.4795 29.4702 38.339 29.4702 43.5069C29.4702 48.6749 33.399 52.5 38.6593 52.5C43.9197 52.5 47.9168 48.6075 47.9168 43.4726C47.9168 38.372 43.988 34.4795 38.6593 34.4795ZM38.6941 48.7752C35.7565 48.7752 33.6039 46.5266 33.6039 43.5069C33.6039 40.458 35.7217 38.2043 38.6593 38.2043C41.6317 38.2043 43.7831 40.491 43.7831 43.5069C43.7831 46.5228 41.6317 48.7752 38.6941 48.7752ZM49.0434 38.4063H51.6059V52.1646H55.7049V34.8149H49.0434V38.4063ZM19.1518 38.2043C21.3044 38.2043 23.0188 39.5128 23.6633 41.459H28.002C27.2157 37.2985 23.7316 34.4795 19.1892 34.4795C14.0307 34.4795 10 38.339 10 43.5069C10 48.6749 13.9288 52.5 19.1892 52.5C23.6298 52.5 27.1809 49.681 27.9672 45.4862H23.6633C23.0484 47.4324 21.3431 48.7752 19.1892 48.7752C16.2168 48.7752 14.1338 46.5266 14.1338 43.5069C14.1338 40.458 16.1871 38.2043 19.1518 38.2043ZM126.924 41.8287L123.918 41.393C122.483 41.191 121.459 40.7209 121.459 39.6144C121.459 38.4063 122.792 37.8016 124.601 37.8016C126.582 37.8016 127.847 38.6413 128.12 40.0172H132.083C131.638 36.5261 128.905 34.4795 124.704 34.4795C120.368 34.4795 117.502 36.6608 117.502 39.7478C117.502 42.7015 119.38 44.4127 123.173 44.9488L126.179 45.3858C127.648 45.5865 128.468 46.1569 128.468 47.2317C128.468 48.6075 127.034 49.1779 125.052 49.1779C122.627 49.1779 121.26 48.2048 121.057 46.7274H117.021C117.396 50.1168 120.095 52.5 125.012 52.5C129.488 52.5 132.459 50.4864 132.459 47.0297C132.46 43.9427 130.309 42.3318 126.927 41.8287H126.924ZM53.6554 27.6677C52.1525 27.6677 51.0246 28.7412 51.0246 30.2186C51.0246 31.6961 52.1499 32.7683 53.6554 32.7683C55.161 32.7683 56.2862 31.6923 56.2862 30.2186C56.2862 28.745 55.1584 27.6677 53.6554 27.6677ZM113.81 40.7527C113.81 36.9936 111.49 34.477 106.568 34.477C101.928 34.477 99.3255 36.7929 98.8138 40.35H102.879C103.084 38.9742 104.177 37.8334 106.5 37.8334C108.583 37.8334 109.608 38.7391 109.608 39.8456C109.608 41.2888 107.73 41.6585 105.407 41.8935C102.264 42.2289 98.3691 43.3024 98.3691 47.3295C98.3691 50.4496 100.727 52.4632 104.484 52.4632C107.422 52.4632 109.266 51.255 110.189 49.3431C110.326 51.0543 111.624 52.1621 113.433 52.1621H115.826V48.5732H113.81V40.7527ZM109.779 45.1152C109.779 47.4299 107.73 49.1411 105.236 49.1411C103.699 49.1411 102.4 48.5059 102.4 47.1618C102.4 45.4506 104.483 44.9806 106.396 44.7786C108.24 44.6109 109.265 44.2082 109.778 43.437L109.779 45.1152ZM88.0198 34.4795C86.9604 34.4658 85.9111 34.6846 84.9481 35.1198C83.985 35.5551 83.1322 36.196 82.4514 36.9962V27.5H78.3524V52.1646H82.3831V49.8779C83.0591 50.7076 83.9181 51.3747 84.8948 51.8283C85.8715 52.282 86.9402 52.5104 88.0198 52.4962C92.9386 52.4962 96.656 48.6698 96.656 43.5031C96.656 38.3364 92.8703 34.4795 88.0198 34.4795ZM87.405 48.7752C84.4674 48.7752 82.3148 46.5266 82.3148 43.5069C82.3148 40.4872 84.506 38.2043 87.4385 38.2043C90.4109 38.2043 92.4952 40.458 92.4952 43.5069C92.4952 46.5266 90.3426 48.7752 87.405 48.7752ZM68.5484 34.4795C65.884 34.4795 64.1426 35.553 63.1179 37.0635V34.8149H59.0524V52.1646H63.1514V42.7345C63.1514 40.0832 64.8593 38.2043 67.387 38.2043C69.7446 38.2043 71.2127 39.8482 71.2127 42.2314V52.1646H75.3117V41.9291C75.3117 37.5666 73.0237 34.4795 68.5484 34.4795ZM152 42.9365C152 37.9693 148.311 34.4795 143.357 34.4795C138.097 34.4795 134.236 38.372 134.236 43.5069C134.236 48.9086 138.37 52.5 143.426 52.5C147.696 52.5 151.044 50.0164 151.897 46.4936H147.628C147.013 48.0371 145.51 48.9073 143.494 48.9073C140.863 48.9073 138.882 47.2965 138.439 44.4788H152V42.9365ZM138.677 41.5937C139.322 39.18 141.171 38.0036 143.289 38.0036C145.609 38.0036 147.388 39.3121 147.8 41.5937H138.677Z" fill="#172B4D"/>
</svg>
