<?xml version="1.0" encoding="utf-8"?>
<!-- Generator: Adobe Illustrator 19.0.0, SVG Export Plug-In . SVG Version: 6.00 Build 0)  -->
<svg version="1.0" id="Layer_1" xmlns="http://www.w3.org/2000/svg" xmlns:xlink="http://www.w3.org/1999/xlink" x="0px" y="0px"
	 viewBox="148 -148 496 496" style="enable-background:new 148 -148 496 496;" xml:space="preserve">
<style type="text/css">
	.st0{fill:#142641;}
</style>
<g>
	<path class="st0" d="M212-148c-35.3,0-64,28.7-64,64v368c0,35.3,28.7,64,64,64h368c35.3,0,64-28.7,64-64V-84c0-35.3-28.7-64-64-64
		H212z M212-116h368c17.7,0,32,14.3,32,32v368c0,17.7-14.3,32-32,32H212c-17.7,0-32-14.3-32-32V-84C180-101.7,194.3-116,212-116z"/>
	<path class="st0" d="M372,188v32h176v-32H372z"/>
	<path class="st0" d="M372-20v172h36V12h36v140h36V12h24c6.6,0,12,5.4,12,12v128h36V20c0-22.1-17.9-40-40-40H372z"/>
	<path class="st0" d="M280-20c-22.1,0-40,17.9-40,40v92c0,22.1,17.9,40,40,40h32v8c0,15.5-14.3,28-32,28h-20v32h20
		c37.6,0,68-26.9,68-60V-20H280z M288,12h24v108h-24c-6.6,0-12-5.4-12-12V24C276,17.4,281.4,12,288,12z"/>
</g>
</svg>
