<svg width="162" height="80" viewBox="0 0 162 80" fill="none" xmlns="http://www.w3.org/2000/svg">
<path d="M30.7506 33.9412V38.4344H41.5275C41.1968 40.9504 40.3569 42.7968 39.0708 44.0941C37.496 45.6633 35.0393 47.379 30.7506 47.379C27.5722 47.379 24.524 46.1208 22.2765 43.8813C20.029 41.6418 18.7664 38.6043 18.7664 35.4372C18.7664 32.27 20.029 29.2326 22.2765 26.993C24.524 24.7535 27.5722 23.4954 30.7506 23.4954C33.7765 23.4576 36.695 24.6118 38.8714 26.707L42.021 23.5686C40.5439 22.0898 38.7826 20.9231 36.8424 20.1385C34.9023 19.3538 32.8232 18.9674 30.7296 19.0022C21.643 19.0022 14 26.3775 14 35.4372C14 44.4968 21.643 51.8669 30.7296 51.8669C35.643 51.8669 39.3438 50.2611 42.2414 47.2691C45.1391 44.2771 46.1417 40.1291 46.1417 36.7658C46.1543 35.8241 46.0752 34.8834 45.9055 33.9569L30.7506 33.9412Z" fill="#172B4D"/>
<path d="M59.6326 30.2901C57.5287 30.2973 55.4741 30.9256 53.7282 32.0956C51.9824 33.2656 50.6236 34.9249 49.8235 36.8639C49.0234 38.8028 48.8178 40.9346 49.2327 42.9899C49.6476 45.0452 50.6644 46.932 52.1547 48.4118C53.645 49.8917 55.5419 50.8984 57.606 51.3048C59.67 51.7111 61.8086 51.4989 63.7517 50.695C65.6948 49.891 67.3553 48.5314 68.5234 46.7877C69.6915 45.044 70.315 42.9945 70.315 40.898C70.3349 39.4964 70.0719 38.1051 69.5417 36.8067C69.0114 35.5083 68.2247 34.3293 67.2283 33.3398C66.2318 32.3503 65.046 31.5705 63.7411 31.0466C62.4363 30.5227 61.0391 30.2654 59.6326 30.2901ZM59.6326 47.3266C56.4043 47.3266 53.6221 44.6746 53.6221 40.898C53.6221 37.1214 56.4043 34.4695 59.6326 34.4695C62.8609 34.4695 65.6431 37.0848 65.6431 40.898C65.6431 44.7113 62.8557 47.3266 59.6326 47.3266Z" fill="#172B4D"/>
<path d="M112 32.6806H111.837C111.125 31.9112 110.257 31.3018 109.29 30.8932C108.324 30.4846 107.281 30.2862 106.231 30.311C100.913 30.311 96.2571 34.9298 96.2571 40.919C96.2571 46.9082 100.892 51.527 106.231 51.527C107.285 51.5538 108.332 51.3521 109.3 50.9357C110.268 50.5193 111.134 49.8983 111.837 49.1156H112V50.5959C112 54.6497 109.821 56.8205 106.32 56.8205C103.464 56.8205 101.685 54.7753 100.95 53.0439L96.8818 54.723C97.6497 56.5884 98.9595 58.1826 100.643 59.301C102.327 60.4194 104.307 61.011 106.331 60.9999C111.811 60.9999 116.446 57.7882 116.446 49.9525V30.8341H112V32.6806ZM106.635 47.3267C103.407 47.3267 100.95 44.5858 100.95 40.8981C100.95 37.2104 103.407 34.4695 106.635 34.4695C109.863 34.4695 112.315 37.2104 112.315 40.9347C112.315 44.659 109.821 47.3267 106.635 47.3267V47.3267Z" fill="#172B4D"/>
<path d="M83.4541 30.2901C81.3502 30.2973 79.2956 30.9256 77.5498 32.0956C75.8039 33.2656 74.4452 34.9249 73.6451 36.8639C72.845 38.8028 72.6394 40.9346 73.0543 42.9899C73.4692 45.0452 74.486 46.932 75.9763 48.4118C77.4665 49.8917 79.3634 50.8984 81.4275 51.3048C83.4915 51.7111 85.6301 51.4989 87.5732 50.695C89.5163 49.891 91.1768 48.5314 92.345 46.7877C93.5131 45.044 94.1365 42.9945 94.1366 40.898C94.1565 39.4964 93.8935 38.1051 93.3632 36.8067C92.833 35.5083 92.0463 34.3293 91.0498 33.3398C90.0534 32.3503 88.8675 31.5705 87.5627 31.0466C86.2579 30.5227 84.8607 30.2654 83.4541 30.2901ZM83.4541 47.3266C80.2258 47.3266 77.4436 44.6746 77.4436 40.898C77.4436 37.1214 80.2258 34.4695 83.4541 34.4695C86.6825 34.4695 89.4646 37.0848 89.4646 40.898C89.4646 44.7113 86.6772 47.3266 83.4541 47.3266Z" fill="#172B4D"/>
<path d="M120.1 19.4258H124.698V51.5113H120.1V19.4258Z" fill="#172B4D"/>
<path d="M138.929 47.3267C136.546 47.3267 134.861 46.2491 133.759 44.1097L148 38.2513L147.522 37.043C146.64 34.6682 143.932 30.2901 138.415 30.2901C132.898 30.2901 128.373 34.5793 128.373 40.8981C128.373 46.8507 132.882 51.506 138.929 51.506C140.682 51.5115 142.409 51.0844 143.956 50.263C145.503 49.4416 146.822 48.2513 147.795 46.7983L144.168 44.387C142.961 46.1393 141.307 47.311 138.919 47.311L138.929 47.3267ZM138.598 34.2498C140.483 34.2498 142.1 35.2175 142.63 36.5827L133.008 40.5476C132.982 36.1119 136.152 34.2498 138.572 34.2498H138.598Z" fill="#172B4D"/>
</svg>
