<?xml version="1.0" encoding="utf-8"?>
<!-- Generator: Adobe Illustrator 19.0.0, SVG Export Plug-In . SVG Version: 6.00 Build 0)  -->
<svg version="1.1" id="Layer_1" 
	 xmlns="http://www.w3.org/2000/svg" xmlns:xlink="http://www.w3.org/1999/xlink" x="0px" y="0px" viewBox="253 -260 705.6 720"
	 style="enable-background:new 253 -260 705.6 720;" xml:space="preserve">
<style type="text/css">
	.st0{fill:#4285F4;}
	.st1{fill:#34A853;}
	.st2{fill:#FBBC05;}
	.st3{fill:#EA4335;}
</style>
<g transform="translate(1184.583 765.171)">
	<path class="st0" d="M-571.6-730.6v139.4h193.7c-8.5,44.8-34,82.8-72.3,108.3l116.8,90.7C-265.3-455.1-226-547.3-226-657
		c0-25.5-2.3-50.1-6.5-73.6L-571.6-730.6z"/>
	<path class="st1" d="M-773.3-596.6l-26.4,20.2l-93.3,72.7l0,0c59.2,117.5,180.6,198.7,321.4,198.7c97.2,0,178.7-32.1,238.3-87.1
		l-116.8-90.7c-32.1,21.6-73,34.7-121.4,34.7c-93.6,0-173.1-63.2-201.6-148.3L-773.3-596.6z"/>
	<path class="st2" d="M-893-826.5c-24.5,48.4-38.6,103.1-38.6,161.3c0,58.3,14.1,112.9,38.6,161.3c0,0.3,119.8-92.9,119.8-92.9
		c-7.2-21.6-11.5-44.5-11.5-68.4c0-23.9,4.3-46.8,11.5-68.4L-893-826.5z"/>
	<path class="st3" d="M-571.6-881.8c53,0,100.1,18.3,137.8,53.7l103.1-103.1c-62.5-58.3-143.7-93.9-240.9-93.9
		c-140.7,0-262.1,80.8-321.4,198.7l119.8,92.9C-744.7-818.7-665.2-881.8-571.6-881.8L-571.6-881.8z"/>
</g>
</svg>
