<svg width="162" height="80" viewBox="0 0 162 80" fill="none" xmlns="http://www.w3.org/2000/svg">
<g clip-path="url(#clip0_8_207)">
<path d="M81.2142 28.5H80.4436V50.5H81.2142V28.5Z" fill="#172B4D"/>
<path d="M66.705 34.1458H63.3142V45.1002H66.705C70.3176 45.1002 72.6326 42.9045 72.6326 39.6336C72.6326 36.3628 70.3176 34.167 66.705 34.167V34.1458ZM66.594 43.773H64.8832V35.5124H66.594C69.6333 35.5124 71.0451 37.2101 71.0451 39.6427C71.0451 42.0754 69.6333 43.773 66.594 43.773ZM55.1179 41.7777L47.7384 33.8542V45.0668H49.1934V37.5047L56.5698 45.4252V34.1883H55.1179V41.7777ZM0 39.6518C0 42.9348 2.31186 45.1184 5.92761 45.1184H9.95334V39.4362H8.39669V43.7518H6.03858C2.99925 43.7518 1.58747 42.0784 1.58747 39.6215C1.58747 37.1645 2.99925 35.4912 6.03858 35.4912H9.95334V34.1458H5.92761C2.31186 34.1458 0 36.3385 0 39.6123V39.6518ZM25.3072 37.4773C25.3072 35.0477 23.6118 34.1549 20.6619 34.1549H17.2927V45.1093H18.834V35.4912H20.6002C22.8689 35.4912 23.7259 35.8951 23.732 37.4682C23.732 39.0414 22.8689 39.4453 20.6002 39.4453H19.5491L24.1975 45.0911H26.158C26.158 45.0911 22.3233 40.6692 22.3542 40.6662C24.2499 40.3443 25.3041 39.3815 25.3103 37.4682L25.3072 37.4773ZM31.5955 45.0941H33.112L34.2988 42.5066H39.2647L40.4299 45.0941H42.0574L36.8172 33.8087L31.5955 45.0941ZM35.0232 40.9274L36.8079 37.0582L38.5619 40.9365L35.0232 40.9274Z" fill="#172B4D"/>
<path d="M133.589 35.3059H137.654V44.9817H139.233V35.3059H143.188V33.9514H133.589V35.3059ZM148.449 33.9514V35.3059H152.546V44.9817H154.124V35.3059H158.261V33.9514H148.449ZM109.635 39.5698L105.96 33.9483H104.219L108.812 41.1582V44.9848H110.384V41.1157L114.884 33.9483H113.198L109.635 39.5698ZM118.352 44.9817H119.893L121.148 42.5157H126.816L128.049 44.9817H129.692L124.021 33.5566L118.352 44.9817ZM121.937 40.9365L124.002 36.8669L126.027 40.9365H121.937Z" fill="#172B4D"/>
<path d="M96.9256 39.0414H90.998V33.9514H89.4229V44.9879H90.998V40.399H96.9256V44.9879H98.5039V33.9514H96.9256V39.0414Z" fill="#172B4D"/>
<path d="M160.912 33.9575C160.768 33.9498 160.623 33.9712 160.488 34.0203C160.352 34.0694 160.228 34.1452 160.123 34.2431C160.018 34.341 159.935 34.459 159.878 34.5897C159.821 34.7205 159.791 34.8614 159.791 35.0037C159.791 35.146 159.821 35.2869 159.878 35.4177C159.935 35.5484 160.018 35.6663 160.123 35.7643C160.228 35.8622 160.352 35.938 160.488 35.9871C160.623 36.0362 160.768 36.0576 160.912 36.0499C161.056 36.0576 161.201 36.0362 161.336 35.9871C161.472 35.938 161.596 35.8622 161.701 35.7643C161.806 35.6663 161.889 35.5484 161.946 35.4177C162.003 35.2869 162.033 35.146 162.033 35.0037C162.033 34.8614 162.003 34.7205 161.946 34.5897C161.889 34.459 161.806 34.341 161.701 34.2431C161.596 34.1452 161.472 34.0694 161.336 34.0203C161.201 33.9712 161.056 33.9498 160.912 33.9575V33.9575ZM160.912 35.8677C160.739 35.8659 160.57 35.8136 160.427 35.7173C160.284 35.621 160.174 35.4852 160.109 35.3269C160.044 35.1686 160.029 34.995 160.065 34.8281C160.1 34.6611 160.185 34.5083 160.309 34.389C160.433 34.2696 160.589 34.1891 160.76 34.1576C160.93 34.1261 161.106 34.145 161.265 34.2119C161.424 34.2789 161.56 34.3908 161.654 34.5337C161.749 34.6765 161.798 34.8438 161.797 35.0143C161.801 35.129 161.78 35.2433 161.737 35.3499C161.694 35.4564 161.628 35.5529 161.545 35.6332C161.462 35.7135 161.363 35.7758 161.254 35.8162C161.145 35.8566 161.028 35.8741 160.912 35.8677" fill="#172B4D"/>
<path d="M161.439 35.5671C161.34 35.4517 161.1 35.1753 161.054 35.1176C161.097 35.1179 161.14 35.1091 161.18 35.0918C161.22 35.0745 161.255 35.0491 161.284 35.0172C161.314 34.9854 161.336 34.9478 161.349 34.907C161.362 34.8662 161.367 34.8231 161.362 34.7805C161.362 34.5406 161.208 34.4313 160.872 34.4313H160.514V35.5793H160.693V34.5831H160.869C161.109 34.5831 161.177 34.6317 161.177 34.7805C161.177 34.9293 161.103 34.9779 160.869 34.9779H160.739L161.232 35.5853H161.457L161.439 35.5671Z" fill="#172B4D"/>
</g>
<defs>
<clipPath id="clip0_8_207">
<rect width="162" height="22" fill="white" transform="translate(0 28.5)"/>
</clipPath>
</defs>
</svg>
