<?xml version="1.0" encoding="utf-8"?>
<!-- Generator: Adobe Illustrator 19.0.0, SVG Export Plug-In . SVG Version: 6.00 Build 0)  -->
<svg version="1.0" id="Layer_1" xmlns="http://www.w3.org/2000/svg" xmlns:xlink="http://www.w3.org/1999/xlink" x="0px" y="0px"
	 viewBox="400 -400 1000 1000" style="enable-background:new 400 -400 1000 1000;" xml:space="preserve">
<style type="text/css">
	.st0{fill:#142641;}
</style>
<g transform="translate(-203.54 -212.7)">
	<path class="st0" d="M1104.9-187.3L997.3,114.3l73.1,0c52.7,0,75.1,41.6,58.5,88.1l-107,299.9H914.4l117.7-330h-55.4L859,502.3
		H750.4l241.5-677.1C769.5-124,603.5,74.9,603.5,312.7c0,234,160.8,430.5,378,485l244-685h176.7c36.5,0,82.5,24.6,62.6,80.7
		l-99.2,280.1c-12.7,35.8-42.8,43-66.8,43h-108.6l-105.3,295.8c6.2,0.2,12.4,0.4,18.7,0.4c276.1,0,500-223.8,500-500
		C1603.5,37,1380.4-186.5,1104.9-187.3L1104.9-187.3z M1313.1,171.5l-102.5,287.6h54.6l102.5-287.6H1313.1z"/>
</g>
</svg>
