<svg width="162" height="109" viewBox="0 0 162 109" fill="none" xmlns="http://www.w3.org/2000/svg">
<path fill-rule="evenodd" clip-rule="evenodd" d="M104.046 22.9521C97.2384 19.6839 89.4772 17.8461 81.3759 17.8461C73.2746 17.8461 65.514 19.6839 58.7064 23.0199C56.3229 28.7388 55.0298 35.0701 55.0298 41.6059C55.0298 48.2096 56.3235 54.4725 58.7064 60.2592C65.514 63.5269 73.2746 65.433 81.3759 65.433C89.4772 65.433 97.2384 63.5269 104.046 60.2592C106.429 54.5414 107.791 48.2101 107.791 41.6059C107.79 35.0701 106.429 28.7388 104.046 22.9521V22.9521Z" fill="#172B4D"/>
<path fill-rule="evenodd" clip-rule="evenodd" d="M102.412 24.382C96.0813 21.455 88.8642 19.7528 81.3759 19.7528C73.8875 19.7528 66.671 21.455 60.3397 24.382C58.2296 29.7608 57.072 35.5469 57.072 41.6059C57.072 47.665 58.229 53.5195 60.3397 58.8299C66.671 61.8253 73.8875 63.4591 81.3759 63.4591C88.8642 63.4591 96.1491 61.8253 102.412 58.8299C104.59 53.5195 105.748 47.7333 105.748 41.6059C105.748 35.5469 104.523 29.7602 102.412 24.382V24.382Z" fill="white"/>
<path fill-rule="evenodd" clip-rule="evenodd" d="M74.0232 36.091C72.934 38.3378 72.1854 40.7885 71.8448 43.5799C71.7764 43.5799 71.2318 43.6482 71.2318 43.6482C68.8489 43.8527 66.4665 44.0567 64.1514 44.9414L64.2875 45.8267C68.1003 50.5242 73.8865 53.3834 73.8865 53.3834L72.7973 51.2727C72.525 51.0688 71.7081 50.8643 71.7081 50.8643C69.1212 50.0474 67.2829 46.6436 67.0106 46.099C69.1212 46.099 71.0273 46.7114 72.7973 47.3243C74.0226 47.665 75.1802 48.0729 76.3372 48.2096C78.3795 48.5497 80.4901 48.2096 82.464 47.9367C84.03 47.7328 85.5283 47.7328 87.0265 47.8684C87.2299 48.0729 88.7959 49.979 90.3619 50.7959C92.268 51.749 97.7825 53.4506 98.0548 53.5189C98.1904 53.5873 100.302 55.7652 101.662 58.2164C95.3984 61.0762 88.3875 62.5727 81.3748 62.5727C74.3627 62.5727 67.3507 61.0756 61.0877 58.2164C59.0454 52.9065 57.9562 47.3238 57.9562 41.6054C57.9562 35.9548 59.0454 30.3721 61.0877 25.0627C67.3507 22.203 74.3627 20.7059 81.3748 20.7059C88.4552 20.7059 95.4673 22.2035 101.662 25.0627C103.705 30.3726 104.793 35.9548 104.793 41.6054C104.799 46.7761 103.924 51.9099 102.207 56.7871C100.233 53.3828 99.4163 52.3619 99.4163 52.3619C99.3485 52.3619 96.6249 50.9321 95.9441 50.3191C95.399 49.8423 95.1278 48.8898 94.7866 47.8C94.3781 46.2346 93.8346 44.3279 92.3364 42.7624L94.038 42.0811C93.5618 38.8818 89.7495 36.8395 89.6817 36.8395L89.6128 36.9079C91.111 38.7457 91.3833 40.2433 91.3833 41.197C91.3833 41.6732 91.3155 42.0133 91.2478 42.1495C90.8387 41.9455 88.0479 41.0602 81.5804 41.3325C80.6952 41.3325 79.3337 41.2647 78.5168 40.5156C78.0399 40.1072 77.836 39.4264 77.836 38.6773C77.836 36.4311 78.7891 33.4352 78.9252 33.0273L80.5596 33.2312C82.6019 32.142 83.3504 31.1206 83.4182 30.985C81.7166 31.1895 79.4704 31.5974 79.4704 31.5974C79.6065 31.2568 80.015 29.9636 80.015 28.5337C80.015 26.9677 79.5387 25.2661 77.5643 24.2447L77.4275 24.313C77.4959 24.3808 78.5845 25.6062 78.5845 27.24C78.5845 27.7168 78.5168 28.2614 78.3122 28.7377C77.6315 28.5337 77.223 28.4659 76.4739 28.4659C76.066 27.1039 74.909 26.0147 73.343 25.4701L73.2746 25.5378C73.2746 25.5378 74.9768 26.7638 75.0446 28.4659C74.2277 28.5337 73.7515 28.6699 72.73 28.9422C72.2532 28.2614 71.3002 27.7168 70.0064 27.5807V27.7174C70.0064 27.7174 71.5041 28.1936 71.7764 29.3512C70.8923 29.7597 69.8025 30.3721 69.1895 30.9172L69.2579 30.9856C73.0701 29.5557 76.6101 29.2156 77.4953 30.3048C77.6993 30.5088 77.7676 30.7133 77.7676 30.9856C77.7676 31.2573 77.6309 31.6663 77.3592 32.0748C75.5214 32.4833 72.6622 33.2318 70.3477 34.1171L70.6878 35.0701C70.6878 35.0701 73.0023 35.5469 73.8876 35.7515C73.8876 35.7515 74.2277 35.8192 74.0232 36.091V36.091ZM31.7092 82.3377C31.7092 82.3377 32.9408 82.7853 34.3213 82.7853C35.8139 82.7853 36.7093 82.5624 37.2315 82.039C37.6422 81.6289 37.8288 80.9196 37.7918 79.8382V72.8228H39.9932V80.1744C39.9562 83.4202 38.3891 84.8013 34.732 84.8013C32.9408 84.8013 31.7092 84.5026 31.7092 84.5026V82.3377V82.3377ZM46.4108 74.9502C49.9182 74.9502 51.9706 76.816 51.9706 79.9503C51.9706 82.1892 50.5155 84.8013 46.4108 84.8013C42.2691 84.8013 40.814 82.1892 40.814 79.9503C40.8134 76.816 42.9028 74.9502 46.4108 74.9502ZM49.8062 79.8388C49.8062 77.936 48.5752 76.8535 46.4108 76.8535C44.2464 76.8535 42.9784 77.936 42.9784 79.8388C42.9784 82.4873 45.1423 82.8615 46.4108 82.8615C47.6793 82.8615 49.8062 82.4867 49.8062 79.8388ZM60.7386 75.1743V78.9053H55.1043V75.1743H52.9405V84.5772H55.1043V80.8081H60.7386V84.5772H62.9406V75.1743H60.7386ZM93.5001 82.6369V80.8081H98.4996V78.9053H93.5001V77.0765H99.9553V75.1743H91.2982V84.5772H99.9553V82.6369H93.5001ZM103.277 82.6369V80.8081H108.277V78.9053H103.277V77.0765H109.768V75.1743H101.112V84.5772H109.768V82.6369H103.277ZM123.799 82.6369V80.8081H128.799V78.9053H123.799V77.0765H130.291V75.1743H121.634V84.5772H130.291V82.6369H123.799ZM83.8732 74.7642C86.7088 74.7642 88.351 76.1812 88.351 78.6436C88.351 82.1147 85.5529 82.6369 83.8732 82.6369H80.7759V74.7642H83.8732V74.7642ZM83.8732 72.8228H78.612V84.5772H83.8732C88.7987 84.5772 90.5149 81.4429 90.5149 78.7938C90.5143 75.0617 88.0149 72.8228 83.8732 72.8228V72.8228ZM118.201 80.9952C119.88 80.5851 120.477 79.3154 120.477 78.196C120.477 76.2932 119.246 75.1743 117.119 75.1743H110.963V84.5766H113.126V81.1437H115.701L118.313 84.5766H120.963L118.201 80.9952V80.9952ZM113.127 79.2039V77.0765H117.12C117.865 77.0765 118.314 77.4878 118.314 78.1215C118.314 79.0549 117.568 79.2039 117.12 79.2039H113.127ZM72.0823 84.5772L66.4099 78.159V84.5772H64.2466V75.1743H66.4099L72.0823 81.5174V75.1743H74.2462V84.5772H72.0823Z" fill="#172B4D"/>
</svg>
