<?xml version="1.0" encoding="utf-8"?>
<!-- Generator: Adobe Illustrator 19.0.0, SVG Export Plug-In . SVG Version: 6.00 Build 0)  -->
<svg version="1.0" id="svg2" xmlnssvg="http://www.w3.org/2000/svg"
	 xmlns="http://www.w3.org/2000/svg" xmlns:xlink="http://www.w3.org/1999/xlink" x="0px" y="0px" viewBox="111.2 1.7 330.8 256.1"
	 style="enable-background:new 111.2 1.7 330.8 256.1;" xml:space="preserve">
<style type="text/css">
	.st0{fill:#142641;}
</style>
<title  id="title4">generated by pstoedit version:3.44 from NVBadge_2D.eps</title>
<path id="path19" class="st0" d="M405.4,207.2l10.6,29h-21.5L405.4,207.2z M394.1,196l-24.4,61.9h17.2l3.9-10.9h28.9l3.7,10.9H442
	l-24.6-61.9L394.1,196z M345,257.9h17.5v-61.9l-17.5,0L345,257.9z M223.6,195.9L209,245l-14-49.1l-18.9,0l20,61.9h25.2l20.1-61.9
	H223.6z M294.3,209.4h7.5c10.9,0,18,4.9,18,17.6c0,12.7-7.1,17.6-18,17.6h-7.5V209.4z M276.9,195.9v61.9h28.4
	c15.1,0,20-2.5,25.4-8.1c3.8-4,6.2-12.6,6.2-22.1c0-8.7-2.1-16.5-5.7-21.3c-6.5-8.6-15.8-10.3-29.8-10.3L276.9,195.9L276.9,195.9z
	 M111.2,195.8v62h17.6v-47.1l13.7,0c4.5,0,7.8,1.1,9.9,3.5c2.8,2.9,3.9,7.7,3.9,16.4v27.2h17.1v-34.3c0-24.5-15.6-27.8-30.8-27.8
	H111.2z M248.8,195.9l0,61.9h17.5v-61.9H248.8z"/>
<path id="path21" class="st0" d="M158.2,72.6c0,0,22.5-33.2,67.4-36.6v-12c-49.8,4-92.9,46.1-92.9,46.1s24.4,70.6,92.9,77v-12.8
	C175.4,128,158.2,72.6,158.2,72.6z M225.6,108.9v11.7c-38-6.8-48.5-46.2-48.5-46.2s18.2-20.2,48.5-23.5v12.9c0,0,0,0-0.1,0
	c-15.9-1.9-28.3,12.9-28.3,12.9S204.2,101.7,225.6,108.9 M225.6,1.7v22.2c1.5-0.1,2.9-0.2,4.4-0.3c56.6-1.9,93.4,46.4,93.4,46.4
	s-42.3,51.5-86.5,51.5c-4,0-7.8-0.4-11.4-1v13.7c3,0.4,6.2,0.6,9.5,0.6c41.1,0,70.7-21,99.5-45.8c4.8,3.8,24.3,13.1,28.3,17.2
	c-27.3,22.9-91,41.3-127.1,41.3c-3.5,0-6.8-0.2-10.1-0.5v19.3h156V1.7H225.6z M225.6,50.9V36c1.4-0.1,2.9-0.2,4.4-0.2
	c40.7-1.3,67.4,35,67.4,35s-28.8,40-59.7,40c-4.4,0-8.4-0.7-12-1.9V63.7c15.8,1.9,19,8.9,28.6,24.8l21.2-17.9
	c0,0-15.5-20.3-41.5-20.3C231,50.4,228.3,50.6,225.6,50.9"/>
</svg>
