           <svg
        width="18"
        height="16"
        viewBox="0 0 18 16"
        fill="none"
        xmlns="http://www.w3.org/2000/svg"
        aria-hidden="true"
      >
        <path
          d="M16.6191 5.63406L11.4706 4.90408L9.16908 0.352135C9.10621 0.227506 9.0028 0.126615 8.87505 0.0652895C8.55467 -0.0890138 8.16534 0.0395723 8.00514 0.352135L5.70364 4.90408L0.555168 5.63406C0.413225 5.65384 0.283449 5.71912 0.184089 5.81803C0.0639678 5.93848 -0.00222426 6.10053 5.70731e-05 6.26856C0.00233841 6.4366 0.0729065 6.59688 0.196255 6.71418L3.92124 10.2572L3.0412 15.2602C3.02056 15.3766 3.03376 15.4963 3.0793 15.6057C3.12484 15.7151 3.20091 15.8099 3.29886 15.8794C3.39682 15.9488 3.51275 15.99 3.6335 15.9984C3.75426 16.0068 3.87502 15.982 3.98208 15.9269L8.58711 13.5649L13.1921 15.9269C13.3179 15.9922 13.4639 16.0139 13.6038 15.9902C13.9566 15.9308 14.1939 15.6044 14.133 15.2602L13.253 10.2572L16.978 6.71418C17.0794 6.61724 17.1463 6.49064 17.1665 6.35216C17.2213 6.00597 16.9739 5.68549 16.6191 5.63406Z"
          fill="orange"
          aria-hidden="true"
        ></path>
      </svg> 