<svg width="162" height="80" viewBox="0 0 162 80" fill="none" xmlns="http://www.w3.org/2000/svg">
<g clip-path="url(#clip0_8_227)">
<path d="M130.965 56.3314C130.39 53.5218 129.815 50.7119 129.241 47.9018C128.571 44.6251 127.9 41.3483 127.229 38.0714C126.584 34.9173 125.939 31.7635 125.295 28.6101C125.032 27.3251 124.77 26.0401 124.507 24.7552C124.487 24.6583 124.477 24.5766 124.332 24.577C122.171 24.5858 120.009 24.5806 117.848 24.593C117.133 24.597 116.438 24.732 115.792 25.0648C114.889 25.5302 114.346 26.3097 113.966 27.2357C109.986 36.9267 106.005 46.6174 102.024 56.3079C101.998 56.3716 101.95 56.4326 101.965 56.5147C101.998 56.5147 102.031 56.5195 102.063 56.5195C104.804 56.5195 107.545 56.5207 110.285 56.5231C110.417 56.5231 110.458 56.4681 110.498 56.3549C111.02 54.8709 111.55 53.3897 112.07 51.9054C112.118 51.7691 112.18 51.73 112.319 51.73C115.665 51.7343 119.011 51.7343 122.358 51.73C122.488 51.73 122.545 51.752 122.575 51.9018C122.866 53.3838 123.168 54.8634 123.466 56.3437C123.486 56.4402 123.492 56.5231 123.637 56.5227C126.092 56.5163 128.546 56.514 131 56.5159V56.3963C130.986 56.3764 130.974 56.3546 130.965 56.3314V56.3314ZM121.064 45.2052C118.897 45.202 116.73 45.2011 114.564 45.2024C114.535 45.2002 114.507 45.196 114.478 45.19C115.9 41.2087 117.376 37.2581 118.768 33.2179C118.85 33.6096 118.925 33.9511 118.994 34.2938C119.72 37.8818 120.447 41.4698 121.175 45.0577C121.198 45.1753 121.185 45.2052 121.064 45.2052Z" fill="#172B4D"/>
<path d="M102.426 44.668C102.152 42.9604 101.322 41.5546 100.123 40.3591C98.9331 39.172 97.5316 38.3025 96.0535 37.5474C94.9378 36.9779 93.816 36.4193 92.7753 35.7111C92.3738 35.4378 91.9941 35.1357 91.6816 34.7576C91.0015 33.9403 91.0015 32.9508 91.6816 32.1319C91.9639 31.799 92.3094 31.5279 92.6972 31.3349C93.539 30.9006 94.446 30.7496 95.3749 30.7029C97.7578 30.5834 100.034 31.0269 102.194 32.0662C102.325 32.1287 102.459 32.1857 102.598 32.2479C102.615 32.1658 102.63 32.108 102.637 32.0486C102.981 29.8884 103.321 27.7274 103.673 25.5688C103.703 25.3879 103.654 25.3297 103.503 25.2735C101.769 24.6194 99.9549 24.213 98.1121 24.0661C97.9296 24.051 97.7394 24.0785 97.5652 23.998H95.2214C95.2074 24.055 95.1605 24.035 95.1265 24.0378C94.3535 24.0839 93.5839 24.177 92.8218 24.3168C90.7804 24.6977 88.8542 25.3859 87.1253 26.5822C85.2781 27.8601 83.9074 29.525 83.2128 31.7159C82.7906 33.048 82.6468 34.4137 82.8613 35.8028C83.1042 37.3788 83.8617 38.6878 84.9316 39.8231C86.0406 40.9983 87.3609 41.877 88.7566 42.6484C89.6246 43.1266 90.5285 43.5378 91.3851 44.0403C92.1273 44.4751 92.8535 44.9282 93.4304 45.5857C94.2421 46.5106 94.2828 47.7527 93.5363 48.715C93.2808 49.0365 92.968 49.3058 92.6144 49.5088C91.83 49.9762 90.9714 50.2197 90.0753 50.2878C88.2464 50.4269 86.4351 50.2878 84.6585 49.7985C83.305 49.4247 82.0273 48.8529 80.7652 48.2404C80.6933 48.2053 80.6257 48.1503 80.5308 48.1531C80.4999 48.3524 80.4714 48.5425 80.4413 48.7317C80.1015 50.8793 79.7606 53.0266 79.4187 55.1737C79.4027 55.2749 79.4242 55.3172 79.5124 55.351C79.755 55.4447 79.9925 55.5539 80.2378 55.6407C82.7175 56.5198 85.2843 56.8952 87.8941 56.988C89.359 57.0385 90.8251 56.9348 92.2691 56.6784C94.0956 56.3568 95.8425 55.7969 97.4499 54.8394C99.7617 53.4618 101.41 51.5291 102.152 48.8668C102.537 47.4901 102.652 46.0862 102.426 44.668Z" fill="#172B4D"/>
<path d="M67.7862 24.5814C65.0912 24.5814 62.3959 24.5799 59.7003 24.577C59.5233 24.577 59.4472 24.6244 59.3831 24.8006C56.8011 31.9059 54.2145 39.0095 51.6233 46.1113C51.6003 46.1739 51.6054 46.2592 51.5202 46.2922C51.4112 45.7364 51.3042 45.184 51.1944 44.6321C51.0098 43.7023 50.8243 42.7736 50.6378 41.8459C50.6413 41.8061 50.6456 41.763 50.6085 41.7331C50.6019 41.6682 50.5995 41.6028 50.5874 41.5391C50.2408 39.7326 49.8934 37.9261 49.5452 36.1196C48.9757 33.1708 48.4163 30.2168 47.8288 27.27C47.5749 25.9948 46.8405 25.1309 45.5788 24.7834C45.0636 24.6452 44.5326 24.5774 43.9999 24.5818C39.789 24.5818 35.5782 24.5818 31.3675 24.5818C31.3481 24.5838 31.3286 24.5838 31.3093 24.5818C31.153 24.5483 31.1065 24.6416 31.0854 24.7755C31.0679 24.8906 31.0651 25.0114 30.9995 25.1146V25.2341C32.1347 25.5131 33.2429 25.8825 34.3429 26.2794C35.2222 26.5982 36.0847 26.9596 36.9288 27.3617C37.8161 27.7771 38.6815 28.2397 39.5214 28.7476C39.5261 28.7651 39.5214 28.7938 39.5511 28.7874C39.5312 28.854 39.5608 28.9138 39.5769 28.9755L42.994 42.1177C44.2219 46.8376 45.4481 51.5581 46.6726 56.2792C46.7159 56.4473 46.7823 56.4928 46.946 56.4924C49.6608 56.4868 52.3756 56.4868 55.0901 56.4924C55.2382 56.4924 55.3167 56.4601 55.3776 56.3071C59.5638 45.8056 63.7525 35.3061 67.9436 24.8085C68.0339 24.5818 68.0339 24.5814 67.7862 24.5814Z" fill="#172B4D"/>
<path d="M79.1945 24.5786C78.1727 24.5838 77.1504 24.5814 76.1285 24.5814C74.5793 24.5814 73.0298 24.5814 71.4801 24.5814C71.3789 24.5814 71.2922 24.5718 71.2734 24.7197C71.2309 25.0548 71.1715 25.3879 71.1172 25.7218C70.6956 28.3861 70.274 31.0506 69.8524 33.7151C69.4948 35.9671 69.1362 38.2187 68.7766 40.4699C68.3927 42.8919 68.01 45.3143 67.6285 47.7371C67.1754 50.5977 66.7197 53.4579 66.2613 56.3178C66.2277 56.525 66.2957 56.5234 66.4485 56.523C67.7246 56.5186 69.0004 56.5206 70.2766 56.5206C71.5723 56.5206 72.8676 56.5206 74.1629 56.5206C74.2848 56.5206 74.343 56.5007 74.3641 56.3568C74.4871 55.5176 74.6235 54.68 74.7547 53.8423C75.2623 50.6409 75.7701 47.4397 76.2781 44.2388C76.7862 41.0379 77.294 37.8367 77.8016 34.6352C78.3224 31.3493 78.8455 28.0635 79.3707 24.7778C79.4035 24.5882 79.3477 24.5778 79.1945 24.5786Z" fill="#172B4D"/>
</g>
<defs>
<clipPath id="clip0_8_227">
<rect width="100" height="33" fill="white" transform="translate(31 24)"/>
</clipPath>
</defs>
</svg>
